<?xml version="1.0" standalone="no"?>
<!DOCTYPE svg PUBLIC "-//W3C//DTD SVG 20010904//EN"
 "http://www.w3.org/TR/2001/REC-SVG-20010904/DTD/svg10.dtd">
<svg version="1.0" xmlns="http://www.w3.org/2000/svg"
 width="294.000000pt" height="284.000000pt" viewBox="0 0 294.000000 284.000000"
 preserveAspectRatio="xMidYMid meet">

<g transform="translate(0.000000,284.000000) scale(0.100000,-0.100000)"
fill="#f72a38" stroke="none">
<path d="M62 2378 l3 -463 602 -3 c511 -2 603 -4 603 -16 0 -8 -270 -281 -600
-608 -330 -326 -600 -596 -600 -600 0 -4 144 -152 319 -329 l319 -322 444 440
c243 241 639 633 878 870 239 236 510 504 601 594 112 111 174 180 191 214 74
145 77 282 7 430 -40 86 -154 186 -249 218 -85 29 -145 31 -1318 34 l-1202 3
2 -462z"/>
<path d="M1955 958 c-3 -7 -4 -215 -3 -463 l3 -450 463 -3 462 -2 0 465 0 465
-460 0 c-359 0 -462 -3 -465 -12z"/>
</g>
</svg>
